name C:/MyDriveSym/Projects/mobilecap/Data\Session20210825_0002\mocap\ForceDataProcessed\walking3_forces.mot
datacolumns 19
datarows 29
range 0.33200000 0.34600000
endheader 
time	R_ground_force_vx	R_ground_force_vy	R_ground_force_vz	R_ground_force_px	R_ground_force_py	R_ground_force_pz	R_ground_torque_x	R_ground_torque_y	R_ground_torque_z	L_ground_force_vx	L_ground_force_vy	L_ground_force_vz	L_ground_force_px	L_ground_force_py	L_ground_force_pz	L_ground_torque_x	L_ground_torque_y	L_ground_torque_z	
          0.33200000	        -40.16519600	        486.83312700	        -20.79524600	          0.24827400	          0.00600000	         -0.13140600	          0.00000000	          0.61033200	          0.00000000	          0.00000000	          0.00000000	          0.00000000	          0.70361000	          0.00000000	         -0.15865100	          0.00000000	          0.00000000	          0.00000000	
          0.33250000	        -39.85753700	        486.10478100	        -20.76529300	          0.24840400	          0.00600000	         -0.13132800	          0.00000000	          0.58811600	          0.00000000	          0.00000000	          0.00000000	          0.00000000	          0.70361000	          0.00000000	         -0.15865100	          0.00000000	          0.00000000	          0.00000000	
          0.33300000	        -39.55066400	        485.38335500	        -20.73558100	          0.24853300	          0.00600000	         -0.13125100	          0.00000000	          0.56581600	          0.00000000	          0.00000000	          0.00000000	          0.00000000	          0.70361000	          0.00000000	         -0.15865100	          0.00000000	          0.00000000	          0.00000000	
          0.33350000	        -39.24457300	        484.66889000	        -20.70611300	          0.24866200	          0.00600000	         -0.13117400	          0.00000000	          0.54343300	          0.00000000	          0.00000000	          0.00000000	          0.00000000	          0.70361000	          0.00000000	         -0.15865100	          0.00000000	          0.00000000	          0.00000000	
          0.33400000	        -38.93926100	        483.96142400	        -20.67689200	          0.24879100	          0.00600000	         -0.13109700	          0.00000000	          0.52096800	          0.00000000	          0.00000000	          0.00000000	          0.00000000	          0.70361000	          0.00000000	         -0.15865100	          0.00000000	          0.00000000	          0.00000000	
          0.33450000	        -38.63472700	        483.26099800	        -20.64792300	          0.24891900	          0.00600000	         -0.13102000	          0.00000000	          0.49842200	          0.00000000	          0.00000000	          0.00000000	          0.00000000	          0.70361000	          0.00000000	         -0.15865100	          0.00000000	          0.00000000	          0.00000000	
          0.33500000	        -38.33096600	        482.56764800	        -20.61920800	          0.24904700	          0.00600000	         -0.13094400	          0.00000000	          0.47579500	          0.00000000	          0.00000000	          0.00000000	          0.00000000	          0.70361000	          0.00000000	         -0.15865100	          0.00000000	          0.00000000	          0.00000000	
          0.33550000	        -38.02797600	        481.88141500	        -20.59075000	          0.24917400	          0.00600000	         -0.13086800	          0.00000000	          0.45309000	          0.00000000	          0.00000000	          0.00000000	          0.00000000	          0.70361000	          0.00000000	         -0.15865100	          0.00000000	          0.00000000	          0.00000000	
          0.33600000	        -37.72575400	        481.20233400	        -20.56255200	          0.24930200	          0.00600000	         -0.13079300	          0.00000000	          0.43030600	          0.00000000	          0.00000000	          0.00000000	          0.00000000	          0.70361000	          0.00000000	         -0.15865100	          0.00000000	          0.00000000	          0.00000000	
          0.33650000	        -37.42429700	        480.53044500	        -20.53461800	          0.24942800	          0.00600000	         -0.13071800	          0.00000000	          0.40744500	          0.00000000	          0.00000000	          0.00000000	          0.00000000	          0.70361000	          0.00000000	         -0.15865100	          0.00000000	          0.00000000	          0.00000000	
          0.33700000	        -37.12360100	        479.86578300	        -20.50695000	          0.24955500	          0.00600000	         -0.13064300	          0.00000000	          0.38450800	          0.00000000	          0.00000000	          0.00000000	          0.00000000	          0.70361000	          0.00000000	         -0.15865100	          0.00000000	          0.00000000	          0.00000000	
          0.33750000	        -36.82366300	        479.20838500	        -20.47955100	          0.24968100	          0.00600000	         -0.13056800	          0.00000000	          0.36149600	          0.00000000	          0.00000000	          0.00000000	          0.00000000	          0.70361000	          0.00000000	         -0.15865100	          0.00000000	          0.00000000	          0.00000000	
          0.33800000	        -36.52448000	        478.55828900	        -20.45242500	          0.24980600	          0.00600000	         -0.13049400	          0.00000000	          0.33840900	          0.00000000	          0.00000000	          0.00000000	          0.00000000	          0.70361000	          0.00000000	         -0.15865100	          0.00000000	          0.00000000	          0.00000000	
          0.33850000	        -36.22604800	        477.91552900	        -20.42557300	          0.24993100	          0.00600000	         -0.13042100	          0.00000000	          0.31525000	          0.00000000	          0.00000000	          0.00000000	          0.00000000	          0.70361000	          0.00000000	         -0.15865100	          0.00000000	          0.00000000	          0.00000000	
          0.33900000	        -35.92836400	        477.28014100	        -20.39899900	          0.25005600	          0.00600000	         -0.13034700	          0.00000000	          0.29201800	          0.00000000	          0.00000000	          0.00000000	          0.00000000	          0.70361000	          0.00000000	         -0.15865100	          0.00000000	          0.00000000	          0.00000000	
          0.33950000	        -35.63142400	        476.65216100	        -20.37270600	          0.25018000	          0.00600000	         -0.13027400	          0.00000000	          0.26871600	          0.00000000	          0.00000000	          0.00000000	          0.00000000	          0.70361000	          0.00000000	         -0.15865100	          0.00000000	          0.00000000	          0.00000000	
          0.34000000	        -35.33522500	        476.03162300	        -20.34669500	          0.25030400	          0.00600000	         -0.13020200	          0.00000000	          0.24534300	          0.00000000	          0.00000000	          0.00000000	          0.00000000	          0.70361000	          0.00000000	         -0.15865100	          0.00000000	          0.00000000	          0.00000000	
          0.34050000	        -35.03976300	        475.41856200	        -20.32097000	          0.25042800	          0.00600000	         -0.13013000	          0.00000000	          0.22190100	          0.00000000	          0.00000000	          0.00000000	          0.00000000	          0.70361000	          0.00000000	         -0.15865100	          0.00000000	          0.00000000	          0.00000000	
          0.34100000	        -34.74503400	        474.81301100	        -20.29553200	          0.25055100	          0.00600000	         -0.13005800	          0.00000000	          0.19839100	          0.00000000	          0.00000000	          0.00000000	          0.00000000	          0.70361000	          0.00000000	         -0.15865100	          0.00000000	          0.00000000	          0.00000000	
          0.34150000	        -34.45103500	        474.21500400	        -20.27038500	          0.25067400	          0.00600000	         -0.12998600	          0.00000000	          0.17481400	          0.00000000	          0.00000000	          0.00000000	          0.00000000	          0.70361000	          0.00000000	         -0.15865100	          0.00000000	          0.00000000	          0.00000000	
          0.34200000	        -34.15776200	        473.62457400	        -20.24553100	          0.25079700	          0.00600000	         -0.12991500	          0.00000000	          0.15117100	          0.00000000	          0.00000000	          0.00000000	          0.00000000	          0.70361000	          0.00000000	         -0.15865100	          0.00000000	          0.00000000	          0.00000000	
          0.34250000	        -33.86521100	        473.04175400	        -20.22097200	          0.25091900	          0.00600000	         -0.12984500	          0.00000000	          0.12746200	          0.00000000	          0.00000000	          0.00000000	          0.00000000	          0.70361000	          0.00000000	         -0.15865100	          0.00000000	          0.00000000	          0.00000000	
          0.34300000	        -33.57337800	        472.46657600	        -20.19671000	          0.25104000	          0.00600000	         -0.12977400	          0.00000000	          0.10369000	          0.00000000	          0.00000000	          0.00000000	          0.00000000	          0.70361000	          0.00000000	         -0.15865100	          0.00000000	          0.00000000	          0.00000000	
          0.34350000	        -33.28225900	        471.89907200	        -20.17274700	          0.25116200	          0.00600000	         -0.12970500	          0.00000000	          0.07985400	          0.00000000	          0.00000000	          0.00000000	          0.00000000	          0.70361000	          0.00000000	         -0.15865100	          0.00000000	          0.00000000	          0.00000000	
          0.34400000	        -32.99185000	        471.33927300	        -20.14908600	          0.25128200	          0.00600000	         -0.12963500	          0.00000000	          0.05595700	          0.00000000	          0.00000000	          0.00000000	          0.00000000	          0.70361000	          0.00000000	         -0.15865100	          0.00000000	          0.00000000	          0.00000000	
          0.34450000	        -32.70214700	        470.78721100	        -20.12572900	          0.25140300	          0.00600000	         -0.12956600	          0.00000000	          0.03199800	          0.00000000	          0.00000000	          0.00000000	          0.00000000	          0.70361000	          0.00000000	         -0.15865100	          0.00000000	          0.00000000	          0.00000000	
          0.34500000	        -32.41314600	        470.24291600	        -20.10267700	          0.25152300	          0.00600000	         -0.12949700	          0.00000000	          0.00797900	          0.00000000	          0.00000000	          0.00000000	          0.00000000	          0.70361000	          0.00000000	         -0.15865100	          0.00000000	          0.00000000	          0.00000000	
          0.34550000	        -32.12484200	        469.70641800	        -20.07993200	          0.25164300	          0.00600000	         -0.12942900	          0.00000000	         -0.01609800	          0.00000000	          0.00000000	          0.00000000	          0.00000000	          0.70361000	          0.00000000	         -0.15865100	          0.00000000	          0.00000000	          0.00000000	
          0.34600000	        -31.83723200	        469.17774700	        -20.05749600	          0.25176200	          0.00600000	         -0.12936100	          0.00000000	         -0.04023400	          0.00000000	          0.00000000	          0.00000000	          0.00000000	          0.70361000	          0.00000000	         -0.15865100	          0.00000000	          0.00000000	          0.00000000	
